M48
; DRILL file {KiCad 5.99.0-unknown-9aa9857685~131~ubuntu21.04.1} date Sun Aug 15 16:35:49 2021
; FORMAT={-:-/ absolute / inch / decimal}
; #@! TF.CreationDate,2021-08-15T16:35:49-05:00
; #@! TF.GenerationSoftware,Kicad,Pcbnew,5.99.0-unknown-9aa9857685~131~ubuntu21.04.1
; #@! TF.FileFunction,MixedPlating,1,2
FMAT,2
INCH
; #@! TA.AperFunction,Plated,PTH,ViaDrill
T1C0.0157
; #@! TA.AperFunction,Plated,PTH,ComponentDrill
T2C0.0236
; #@! TA.AperFunction,Plated,PTH,ComponentDrill
T3C0.0380
; #@! TA.AperFunction,Plated,PTH,ComponentDrill
T4C0.0394
; #@! TA.AperFunction,Plated,PTH,ComponentDrill
T5C0.0413
; #@! TA.AperFunction,Plated,PTH,ComponentDrill
T6C0.0512
; #@! TA.AperFunction,Plated,PTH,ComponentDrill
T7C0.0701
; #@! TA.AperFunction,Plated,PTH,ComponentDrill
T8C0.0866
%
G90
G05
T1
X4.975Y-3.55
X4.975Y-3.75
X5.0036Y-3.7
X5.05Y-3.875
X5.125Y-3.8
X5.1714Y-3.45
X5.2Y-3.65
X5.2286Y-3.525
X5.25Y-3.65
X5.375Y-3.45
X5.425Y-4.225
X5.62Y-2.93
X5.66Y-2.93
T2
X3.9266Y-3.4754
X4.1234Y-3.5246
T3
X3.7Y-2.7
X3.7Y-2.9
X3.7Y-3.35
X3.7Y-3.55
T4
X4.7Y-3.8502
X4.7Y-3.9502
X4.7Y-4.0502
X4.7Y-4.1502
X5.3Y-3.7502
X5.3Y-3.8502
X5.3Y-3.9502
X5.3Y-4.0502
X5.3Y-4.1502
X5.6Y-3.75
X5.6Y-3.85
X5.6Y-3.95
X5.6Y-4.05
X5.6Y-4.15
X5.6Y-4.25
T5
X3.95Y-2.85
X3.95Y-3.0469
X5.1075Y-2.6453
X5.1075Y-3.2516
T6
X3.4Y-3.05
X3.4Y-3.2469
X3.4Y-3.65
X3.4Y-3.8469
X3.8306Y-3.7638
X3.8306Y-4.2362
X4.3109Y-3.7638
X4.3109Y-4.2362
X4.3897Y-4.0
X5.9803Y-2.8547
X5.9803Y-3.0516
X5.9803Y-3.2484
X5.9803Y-3.4453
X5.9803Y-3.7516
X5.9803Y-3.9484
T7
X5.3331Y-2.7047
X5.3331Y-3.0953
X5.4669Y-2.7047
X5.4669Y-3.0953
T8
X3.3Y-2.6
X3.3Y-4.25
X6.1Y-2.6
X6.1Y-4.25
T0
M30
