G04 #@! TF.GenerationSoftware,KiCad,Pcbnew,5.99.0-unknown-9aa9857685~131~ubuntu21.04.1*
G04 #@! TF.CreationDate,2021-08-15T16:35:43-05:00*
G04 #@! TF.ProjectId,LED_Pro,4c45445f-5072-46f2-9e6b-696361645f70,rev?*
G04 #@! TF.SameCoordinates,Original*
G04 #@! TF.FileFunction,Copper,L1,Top*
G04 #@! TF.FilePolarity,Positive*
%FSLAX46Y46*%
G04 Gerber Fmt 4.6, Leading zero omitted, Abs format (unit mm)*
G04 Created by KiCad (PCBNEW 5.99.0-unknown-9aa9857685~131~ubuntu21.04.1) date 2021-08-15 16:35:43*
%MOMM*%
%LPD*%
G01*
G04 APERTURE LIST*
G04 Aperture macros list*
%AMRoundRect*
0 Rectangle with rounded corners*
0 $1 Rounding radius*
0 $2 $3 $4 $5 $6 $7 $8 $9 X,Y pos of 4 corners*
0 Add a 4 corners polygon primitive as box body*
4,1,4,$2,$3,$4,$5,$6,$7,$8,$9,$2,$3,0*
0 Add four circle primitives for the rounded corners*
1,1,$1+$1,$2,$3*
1,1,$1+$1,$4,$5*
1,1,$1+$1,$6,$7*
1,1,$1+$1,$8,$9*
0 Add four rect primitives between the rounded corners*
20,1,$1+$1,$2,$3,$4,$5,0*
20,1,$1+$1,$4,$5,$6,$7,0*
20,1,$1+$1,$6,$7,$8,$9,0*
20,1,$1+$1,$8,$9,$2,$3,0*%
G04 Aperture macros list end*
G04 #@! TA.AperFunction,EtchedComponent*
%ADD10C,0.381000*%
G04 #@! TD*
G04 #@! TA.AperFunction,ComponentPad*
%ADD11C,3.800000*%
G04 #@! TD*
G04 #@! TA.AperFunction,ComponentPad*
%ADD12C,3.000000*%
G04 #@! TD*
G04 #@! TA.AperFunction,SMDPad,CuDef*
%ADD13R,2.300000X2.500000*%
G04 #@! TD*
G04 #@! TA.AperFunction,ComponentPad*
%ADD14R,2.300000X2.000000*%
G04 #@! TD*
G04 #@! TA.AperFunction,ComponentPad*
%ADD15C,2.300000*%
G04 #@! TD*
G04 #@! TA.AperFunction,ComponentPad*
%ADD16C,2.780000*%
G04 #@! TD*
G04 #@! TA.AperFunction,ComponentPad*
%ADD17R,2.600000X2.600000*%
G04 #@! TD*
G04 #@! TA.AperFunction,ComponentPad*
%ADD18C,2.600000*%
G04 #@! TD*
G04 #@! TA.AperFunction,ComponentPad*
%ADD19R,1.700000X1.700000*%
G04 #@! TD*
G04 #@! TA.AperFunction,ComponentPad*
%ADD20O,1.700000X1.700000*%
G04 #@! TD*
G04 #@! TA.AperFunction,SMDPad,CuDef*
%ADD21RoundRect,0.150000X-0.512500X-0.150000X0.512500X-0.150000X0.512500X0.150000X-0.512500X0.150000X0*%
G04 #@! TD*
G04 #@! TA.AperFunction,SMDPad,CuDef*
%ADD22RoundRect,0.150000X0.587500X0.150000X-0.587500X0.150000X-0.587500X-0.150000X0.587500X-0.150000X0*%
G04 #@! TD*
G04 #@! TA.AperFunction,SMDPad,CuDef*
%ADD23RoundRect,0.250000X0.450000X-0.262500X0.450000X0.262500X-0.450000X0.262500X-0.450000X-0.262500X0*%
G04 #@! TD*
G04 #@! TA.AperFunction,SMDPad,CuDef*
%ADD24RoundRect,0.250000X0.262500X0.450000X-0.262500X0.450000X-0.262500X-0.450000X0.262500X-0.450000X0*%
G04 #@! TD*
G04 #@! TA.AperFunction,SMDPad,CuDef*
%ADD25RoundRect,0.250000X-0.475000X0.250000X-0.475000X-0.250000X0.475000X-0.250000X0.475000X0.250000X0*%
G04 #@! TD*
G04 #@! TA.AperFunction,ComponentPad*
%ADD26C,1.600000*%
G04 #@! TD*
G04 #@! TA.AperFunction,ComponentPad*
%ADD27R,1.473200X1.473200*%
G04 #@! TD*
G04 #@! TA.AperFunction,ComponentPad*
%ADD28C,1.473200*%
G04 #@! TD*
G04 #@! TA.AperFunction,SMDPad,CuDef*
%ADD29RoundRect,0.243750X0.243750X0.456250X-0.243750X0.456250X-0.243750X-0.456250X0.243750X-0.456250X0*%
G04 #@! TD*
G04 #@! TA.AperFunction,SMDPad,CuDef*
%ADD30RoundRect,0.250000X-0.650000X0.325000X-0.650000X-0.325000X0.650000X-0.325000X0.650000X0.325000X0*%
G04 #@! TD*
G04 #@! TA.AperFunction,ViaPad*
%ADD31C,0.800000*%
G04 #@! TD*
G04 #@! TA.AperFunction,Conductor*
%ADD32C,1.016000*%
G04 #@! TD*
G04 #@! TA.AperFunction,Conductor*
%ADD33C,0.254000*%
G04 #@! TD*
G04 #@! TA.AperFunction,Conductor*
%ADD34C,3.175000*%
G04 #@! TD*
G04 #@! TA.AperFunction,Conductor*
%ADD35C,0.508000*%
G04 #@! TD*
G04 APERTURE END LIST*
D10*
X90487500Y-105283000D02*
X88582500Y-103886000D01*
X88582500Y-103886000D02*
X88582500Y-105156000D01*
X86677500Y-103632000D02*
X85661500Y-103505000D01*
X85661500Y-103505000D02*
X86296500Y-104267000D01*
X86296500Y-104267000D02*
X86042500Y-103759000D01*
X86042500Y-103759000D02*
X88836500Y-105537000D01*
X88836500Y-105537000D02*
X88836500Y-104267000D01*
X88836500Y-104267000D02*
X90868500Y-106045000D01*
X90868500Y-106045000D02*
X90360500Y-105283000D01*
X90360500Y-105283000D02*
X90868500Y-105156000D01*
X90741500Y-105029000D02*
X88455500Y-103505000D01*
X88455500Y-103505000D02*
X88455500Y-104902000D01*
X88455500Y-104902000D02*
X86169500Y-103759000D01*
X86169500Y-103759000D02*
X86677500Y-103632000D01*
D11*
X83820000Y-107950000D03*
D12*
X111497500Y-101600000D03*
X97297500Y-107600000D03*
X97297500Y-95600000D03*
X109497500Y-95600000D03*
X109497500Y-107600000D03*
D13*
X143256000Y-80636000D03*
X143256000Y-76336000D03*
D14*
X100330000Y-72390000D03*
D15*
X100330000Y-77390000D03*
X129730000Y-67190000D03*
X129730000Y-82590000D03*
D16*
X135460000Y-68700000D03*
X138860000Y-68700000D03*
X135460000Y-78620000D03*
X138860000Y-78620000D03*
D17*
X86360000Y-77470000D03*
D18*
X86360000Y-82470000D03*
D17*
X86360000Y-92710000D03*
D18*
X86360000Y-97710000D03*
D17*
X151900000Y-100290000D03*
D18*
X151900000Y-95290000D03*
D17*
X151900000Y-87510000D03*
D18*
X151900000Y-82510000D03*
X151900000Y-77510000D03*
X151900000Y-72510000D03*
D19*
X142240000Y-95250000D03*
D20*
X142240000Y-97790000D03*
X142240000Y-100330000D03*
X142240000Y-102870000D03*
X142240000Y-105410000D03*
X142240000Y-107950000D03*
D19*
X119380000Y-97795000D03*
D20*
X119380000Y-100335000D03*
X119380000Y-102875000D03*
X119380000Y-105415000D03*
D19*
X134620000Y-95255000D03*
D20*
X134620000Y-97795000D03*
X134620000Y-100335000D03*
X134620000Y-102875000D03*
X134620000Y-105415000D03*
D21*
X128270000Y-89220000D03*
X128270000Y-90170000D03*
X128270000Y-91120000D03*
X130545000Y-91120000D03*
X130545000Y-89220000D03*
X134337500Y-89220000D03*
X134337500Y-90170000D03*
X134337500Y-91120000D03*
X136612500Y-91120000D03*
X136612500Y-89220000D03*
D22*
X120317500Y-91120000D03*
X120317500Y-89220000D03*
X118442500Y-90170000D03*
D23*
X123825000Y-91082500D03*
X123825000Y-89257500D03*
D24*
X130207500Y-93980000D03*
X128382500Y-93980000D03*
D25*
X124460000Y-103190000D03*
X124460000Y-105090000D03*
D26*
X104735000Y-89525000D03*
X99735000Y-88275000D03*
D27*
X93980000Y-68580000D03*
D28*
X93980000Y-73660000D03*
D27*
X93980000Y-90170000D03*
D28*
X93980000Y-85090000D03*
D29*
X125065000Y-93980000D03*
X123190000Y-93980000D03*
D11*
X154940000Y-107950000D03*
X83820000Y-66040000D03*
D30*
X128270000Y-102665000D03*
X128270000Y-105615000D03*
D11*
X154940000Y-66040000D03*
D31*
X142748000Y-74422000D03*
X143764000Y-74422000D03*
X127091500Y-93980000D03*
X126365000Y-95250000D03*
X126365000Y-90170000D03*
X132080000Y-92710000D03*
X130175000Y-96520000D03*
X131353500Y-87630000D03*
X137795000Y-107315000D03*
X133350000Y-92710000D03*
X132806500Y-89535000D03*
X128270000Y-98425000D03*
X136525000Y-87630000D03*
D32*
X100330000Y-77390000D02*
X100330000Y-87680000D01*
X100330000Y-87680000D02*
X99735000Y-88275000D01*
X143256000Y-74930000D02*
X142748000Y-74422000D01*
X143256000Y-74930000D02*
X143764000Y-74422000D01*
X143256000Y-76336000D02*
X143256000Y-74930000D01*
D33*
X138176000Y-85598000D02*
X138176000Y-90678000D01*
X137734000Y-91120000D02*
X136612500Y-91120000D01*
X131064000Y-78486000D02*
X138176000Y-85598000D01*
X138176000Y-90678000D02*
X137734000Y-91120000D01*
X148336000Y-78946000D02*
X151900000Y-82510000D01*
X131064000Y-78486000D02*
X131064000Y-72898000D01*
X131572000Y-72390000D02*
X145796000Y-72390000D01*
X145796000Y-72390000D02*
X148336000Y-74930000D01*
X148336000Y-74930000D02*
X148336000Y-78946000D01*
X131064000Y-72898000D02*
X131572000Y-72390000D01*
D32*
X143256000Y-80636000D02*
X143256000Y-82042000D01*
X143256000Y-82042000D02*
X148724000Y-87510000D01*
X148724000Y-87510000D02*
X151900000Y-87510000D01*
D33*
X130545000Y-91120000D02*
X131765000Y-91120000D01*
X131765000Y-91120000D02*
X132080000Y-90805000D01*
X130810000Y-71755000D02*
X146145000Y-71755000D01*
X132080000Y-90805000D02*
X132080000Y-81280000D01*
X146145000Y-71755000D02*
X151900000Y-77510000D01*
X132080000Y-81280000D02*
X130175000Y-79375000D01*
X130175000Y-79375000D02*
X130175000Y-72390000D01*
X130175000Y-72390000D02*
X130810000Y-71755000D01*
X125065000Y-93980000D02*
X127091500Y-93980000D01*
X126365000Y-95250000D02*
X121925000Y-95250000D01*
X128270000Y-90170000D02*
X126365000Y-90170000D01*
X121925000Y-95250000D02*
X119380000Y-97795000D01*
X119380000Y-100335000D02*
X123195000Y-96520000D01*
X123195000Y-96520000D02*
X130175000Y-96520000D01*
X132080000Y-92710000D02*
X132080000Y-92036942D01*
X132080000Y-92036942D02*
X133946942Y-90170000D01*
X133946942Y-90170000D02*
X134337500Y-90170000D01*
X129730000Y-67190000D02*
X123825000Y-73095000D01*
X123825000Y-73095000D02*
X123825000Y-89257500D01*
X130545000Y-89220000D02*
X130545000Y-88438500D01*
X130545000Y-88438500D02*
X131353500Y-87630000D01*
X119380000Y-102875000D02*
X124145000Y-102875000D01*
D34*
X147970000Y-68580000D02*
X147320000Y-68580000D01*
X135460003Y-68699990D02*
X138859997Y-68699990D01*
X147200000Y-68700000D02*
X138860000Y-68700000D01*
X151900000Y-72510000D02*
X147970000Y-68580000D01*
X147320000Y-68580000D02*
X147200000Y-68700000D01*
X135460003Y-78620010D02*
X138859997Y-78620010D01*
X138860000Y-78620000D02*
X138860000Y-82250000D01*
X138860000Y-82250000D02*
X151900000Y-95290000D01*
D35*
X100250000Y-77470000D02*
X100330000Y-77390000D01*
D32*
X86360000Y-77470000D02*
X100249990Y-77470000D01*
D33*
X134337500Y-89220000D02*
X133121500Y-89220000D01*
X133350000Y-92107500D02*
X134337500Y-91120000D01*
X137795000Y-107315000D02*
X137795000Y-109220000D01*
X151900000Y-105275000D02*
X151900000Y-100290000D01*
D34*
X155575000Y-99060000D02*
X154305000Y-100330000D01*
X151900000Y-87765000D02*
X155575000Y-91440000D01*
D33*
X124460000Y-105090000D02*
X127745000Y-105090000D01*
X119380000Y-105415000D02*
X124135000Y-105415000D01*
X133121500Y-89220000D02*
X132806500Y-89535000D01*
X123185000Y-109220000D02*
X142240000Y-109220000D01*
X124135000Y-105415000D02*
X124460000Y-105090000D01*
X125638489Y-89869068D02*
X125638489Y-90594615D01*
X133350000Y-92710000D02*
X133350000Y-92107500D01*
D34*
X151900000Y-87510000D02*
X151900000Y-87765000D01*
X155575000Y-91440000D02*
X155575000Y-99060000D01*
D33*
X125638489Y-90594615D02*
X126163874Y-91120000D01*
X126163874Y-91120000D02*
X128270000Y-91120000D01*
X119380000Y-105415000D02*
X123185000Y-109220000D01*
X123787500Y-89220000D02*
X123825000Y-89257500D01*
D34*
X154305000Y-100330000D02*
X151940000Y-100330000D01*
D33*
X142240000Y-109220000D02*
X147955000Y-109220000D01*
X147955000Y-109220000D02*
X151900000Y-105275000D01*
D34*
X151940000Y-100330000D02*
X151900000Y-100290000D01*
D33*
X128270000Y-89220000D02*
X126287557Y-89220000D01*
X128270000Y-88900000D02*
X128270000Y-89220000D01*
X127635000Y-88265000D02*
X128270000Y-88900000D01*
X126287557Y-89220000D02*
X125638489Y-89869068D01*
X142240000Y-107950000D02*
X142240000Y-109220000D01*
X120317500Y-89220000D02*
X123787500Y-89220000D01*
X123825000Y-89257500D02*
X124737500Y-89257500D01*
X124737500Y-89257500D02*
X125730000Y-88265000D01*
X125730000Y-88265000D02*
X127635000Y-88265000D01*
X127745000Y-105090000D02*
X128270000Y-105615000D01*
X129730000Y-82590000D02*
X129730000Y-83375000D01*
X124460000Y-103190000D02*
X127745000Y-103190000D01*
X136525000Y-89132500D02*
X136612500Y-89220000D01*
X124145000Y-102875000D02*
X124460000Y-103190000D01*
X116845000Y-102875000D02*
X119380000Y-102875000D01*
X119695000Y-103190000D02*
X119380000Y-102875000D01*
X112110000Y-107600000D02*
X116840000Y-102870000D01*
X128270000Y-98425000D02*
X128270000Y-102665000D01*
X136525000Y-87630000D02*
X136525000Y-89132500D01*
X109497500Y-107600000D02*
X112110000Y-107600000D01*
X116840000Y-102870000D02*
X116845000Y-102875000D01*
X127745000Y-103190000D02*
X128270000Y-102665000D01*
X142235000Y-95255000D02*
X142240000Y-95250000D01*
X134620000Y-95255000D02*
X142235000Y-95255000D01*
X134620000Y-97795000D02*
X142235000Y-97795000D01*
X130207500Y-93980000D02*
X130207500Y-95282500D01*
X142235000Y-97795000D02*
X142240000Y-97790000D01*
X130207500Y-95282500D02*
X132720000Y-97795000D01*
X132720000Y-97795000D02*
X134620000Y-97795000D01*
X142235000Y-100335000D02*
X142240000Y-100330000D01*
X134620000Y-100335000D02*
X142235000Y-100335000D01*
X142235000Y-102875000D02*
X142240000Y-102870000D01*
X134620000Y-102875000D02*
X142235000Y-102875000D01*
X142235000Y-105415000D02*
X142240000Y-105410000D01*
X134620000Y-105415000D02*
X142235000Y-105415000D01*
X133675001Y-90170000D02*
X134337500Y-90170000D01*
X128257500Y-93980000D02*
X128382500Y-93980000D01*
X120317500Y-91120000D02*
X123787500Y-91120000D01*
X123825000Y-91082500D02*
X125485000Y-91082500D01*
X125485000Y-91082500D02*
X128382500Y-93980000D01*
X123787500Y-91120000D02*
X123825000Y-91082500D01*
X123190000Y-93980000D02*
X118110000Y-93980000D01*
X118442500Y-90170000D02*
X118110000Y-90502500D01*
X114935000Y-93980000D02*
X118110000Y-93980000D01*
X118110000Y-90502500D02*
X118110000Y-93980000D01*
X113315000Y-95600000D02*
X114935000Y-93980000D01*
X109497500Y-95600000D02*
X113315000Y-95600000D01*
M02*
