G04 #@! TF.GenerationSoftware,KiCad,Pcbnew,5.99.0-unknown-9aa9857685~131~ubuntu21.04.1*
G04 #@! TF.CreationDate,2021-08-15T16:35:44-05:00*
G04 #@! TF.ProjectId,LED_Pro,4c45445f-5072-46f2-9e6b-696361645f70,rev?*
G04 #@! TF.SameCoordinates,Original*
G04 #@! TF.FileFunction,Legend,Top*
G04 #@! TF.FilePolarity,Positive*
%FSLAX46Y46*%
G04 Gerber Fmt 4.6, Leading zero omitted, Abs format (unit mm)*
G04 Created by KiCad (PCBNEW 5.99.0-unknown-9aa9857685~131~ubuntu21.04.1) date 2021-08-15 16:35:44*
%MOMM*%
%LPD*%
G01*
G04 APERTURE LIST*
%ADD10C,0.300000*%
%ADD11C,0.200000*%
%ADD12C,0.150000*%
%ADD13C,0.120000*%
G04 APERTURE END LIST*
D10*
X121642857Y-108835000D02*
X122357142Y-108835000D01*
X121500000Y-109263571D02*
X122000000Y-107763571D01*
X122500000Y-109263571D01*
X122785714Y-107763571D02*
X123642857Y-107763571D01*
X123214285Y-109263571D02*
X123214285Y-107763571D01*
X124428571Y-107763571D02*
X124714285Y-107763571D01*
X124857142Y-107835000D01*
X125000000Y-107977857D01*
X125071428Y-108263571D01*
X125071428Y-108763571D01*
X125000000Y-109049285D01*
X124857142Y-109192142D01*
X124714285Y-109263571D01*
X124428571Y-109263571D01*
X124285714Y-109192142D01*
X124142857Y-109049285D01*
X124071428Y-108763571D01*
X124071428Y-108263571D01*
X124142857Y-107977857D01*
X124285714Y-107835000D01*
X124428571Y-107763571D01*
X125714285Y-109263571D02*
X125714285Y-107763571D01*
X126214285Y-108835000D01*
X126714285Y-107763571D01*
X126714285Y-109263571D01*
X129285714Y-109263571D02*
X128571428Y-109263571D01*
X128571428Y-107763571D01*
X129785714Y-109263571D02*
X129785714Y-107763571D01*
X130285714Y-107763571D02*
X131142857Y-107763571D01*
X130714285Y-109263571D02*
X130714285Y-107763571D01*
X131642857Y-108477857D02*
X132142857Y-108477857D01*
X132357142Y-109263571D02*
X131642857Y-109263571D01*
X131642857Y-107763571D01*
X132357142Y-107763571D01*
X146839714Y-83950857D02*
X146911142Y-84022285D01*
X146982571Y-84236571D01*
X146982571Y-84379428D01*
X146911142Y-84593714D01*
X146768285Y-84736571D01*
X146625428Y-84808000D01*
X146339714Y-84879428D01*
X146125428Y-84879428D01*
X145839714Y-84808000D01*
X145696857Y-84736571D01*
X145554000Y-84593714D01*
X145482571Y-84379428D01*
X145482571Y-84236571D01*
X145554000Y-84022285D01*
X145625428Y-83950857D01*
X146982571Y-82593714D02*
X146982571Y-83308000D01*
X145482571Y-83308000D01*
X146982571Y-82093714D02*
X145482571Y-82093714D01*
X146982571Y-81236571D02*
X146125428Y-81879428D01*
X145482571Y-81236571D02*
X146339714Y-82093714D01*
X146982571Y-78648571D02*
X145482571Y-78648571D01*
X145482571Y-78291428D01*
X145554000Y-78077142D01*
X145696857Y-77934285D01*
X145839714Y-77862857D01*
X146125428Y-77791428D01*
X146339714Y-77791428D01*
X146625428Y-77862857D01*
X146768285Y-77934285D01*
X146911142Y-78077142D01*
X146982571Y-78291428D01*
X146982571Y-78648571D01*
X145482571Y-76862857D02*
X145482571Y-76577142D01*
X145554000Y-76434285D01*
X145696857Y-76291428D01*
X145982571Y-76220000D01*
X146482571Y-76220000D01*
X146768285Y-76291428D01*
X146911142Y-76434285D01*
X146982571Y-76577142D01*
X146982571Y-76862857D01*
X146911142Y-77005714D01*
X146768285Y-77148571D01*
X146482571Y-77220000D01*
X145982571Y-77220000D01*
X145696857Y-77148571D01*
X145554000Y-77005714D01*
X145482571Y-76862857D01*
D11*
X139065000Y-86070000D02*
X114935000Y-86070000D01*
X139065000Y-110200000D02*
X139065000Y-86070000D01*
X114935000Y-86070000D02*
X114935000Y-110200000D01*
X114935000Y-110200000D02*
X139065000Y-110200000D01*
D10*
X146157142Y-95821428D02*
X146157142Y-94678571D01*
X146728571Y-95250000D02*
X145585714Y-95250000D01*
X83228571Y-89328571D02*
X81728571Y-89328571D01*
X83228571Y-88471428D01*
X81728571Y-88471428D01*
X81871428Y-86824285D02*
X81871428Y-86110000D01*
X83371428Y-86110000D01*
X83228571Y-74088571D02*
X81728571Y-74088571D01*
X83228571Y-73231428D01*
X81728571Y-73231428D01*
X81871428Y-102064285D02*
X81871428Y-101350000D01*
X83371428Y-101350000D01*
X146157142Y-101536428D02*
X146157142Y-100393571D01*
X146157142Y-88201428D02*
X146157142Y-87058571D01*
X146157142Y-72326428D02*
X146157142Y-71183571D01*
X146728571Y-71755000D02*
X145585714Y-71755000D01*
D12*
X91971904Y-107767380D02*
X91971904Y-106767380D01*
X92543333Y-107767380D02*
X92114761Y-107195952D01*
X92543333Y-106767380D02*
X91971904Y-107338809D01*
X93495714Y-107767380D02*
X92924285Y-107767380D01*
X93210000Y-107767380D02*
X93210000Y-106767380D01*
X93114761Y-106910238D01*
X93019523Y-107005476D01*
X92924285Y-107053095D01*
X142517904Y-83510380D02*
X142517904Y-82510380D01*
X142756000Y-82510380D01*
X142898857Y-82558000D01*
X142994095Y-82653238D01*
X143041714Y-82748476D01*
X143089333Y-82938952D01*
X143089333Y-83081809D01*
X143041714Y-83272285D01*
X142994095Y-83367523D01*
X142898857Y-83462761D01*
X142756000Y-83510380D01*
X142517904Y-83510380D01*
X143470285Y-82605619D02*
X143517904Y-82558000D01*
X143613142Y-82510380D01*
X143851238Y-82510380D01*
X143946476Y-82558000D01*
X143994095Y-82605619D01*
X144041714Y-82700857D01*
X144041714Y-82796095D01*
X143994095Y-82938952D01*
X143422666Y-83510380D01*
X144041714Y-83510380D01*
X95305714Y-80462380D02*
X95305714Y-79462380D01*
X95686666Y-79462380D01*
X95781904Y-79510000D01*
X95829523Y-79557619D01*
X95877142Y-79652857D01*
X95877142Y-79795714D01*
X95829523Y-79890952D01*
X95781904Y-79938571D01*
X95686666Y-79986190D01*
X95305714Y-79986190D01*
X96258095Y-80414761D02*
X96400952Y-80462380D01*
X96639047Y-80462380D01*
X96734285Y-80414761D01*
X96781904Y-80367142D01*
X96829523Y-80271904D01*
X96829523Y-80176666D01*
X96781904Y-80081428D01*
X96734285Y-80033809D01*
X96639047Y-79986190D01*
X96448571Y-79938571D01*
X96353333Y-79890952D01*
X96305714Y-79843333D01*
X96258095Y-79748095D01*
X96258095Y-79652857D01*
X96305714Y-79557619D01*
X96353333Y-79510000D01*
X96448571Y-79462380D01*
X96686666Y-79462380D01*
X96829523Y-79510000D01*
X97781904Y-80462380D02*
X97210476Y-80462380D01*
X97496190Y-80462380D02*
X97496190Y-79462380D01*
X97400952Y-79605238D01*
X97305714Y-79700476D01*
X97210476Y-79748095D01*
X141458571Y-73993333D02*
X141458571Y-74326666D01*
X141982380Y-74326666D02*
X140982380Y-74326666D01*
X140982380Y-73850476D01*
X140982380Y-73564761D02*
X140982380Y-72945714D01*
X141363333Y-73279047D01*
X141363333Y-73136190D01*
X141410952Y-73040952D01*
X141458571Y-72993333D01*
X141553809Y-72945714D01*
X141791904Y-72945714D01*
X141887142Y-72993333D01*
X141934761Y-73040952D01*
X141982380Y-73136190D01*
X141982380Y-73421904D01*
X141934761Y-73517142D01*
X141887142Y-73564761D01*
X90872380Y-80303333D02*
X91586666Y-80303333D01*
X91729523Y-80350952D01*
X91824761Y-80446190D01*
X91872380Y-80589047D01*
X91872380Y-80684285D01*
X91872380Y-79303333D02*
X91872380Y-79874761D01*
X91872380Y-79589047D02*
X90872380Y-79589047D01*
X91015238Y-79684285D01*
X91110476Y-79779523D01*
X91158095Y-79874761D01*
X84550476Y-73826666D02*
X85026666Y-73826666D01*
X84455238Y-74112380D02*
X84788571Y-73112380D01*
X85121904Y-74112380D01*
X86026666Y-74017142D02*
X85979047Y-74064761D01*
X85836190Y-74112380D01*
X85740952Y-74112380D01*
X85598095Y-74064761D01*
X85502857Y-73969523D01*
X85455238Y-73874285D01*
X85407619Y-73683809D01*
X85407619Y-73540952D01*
X85455238Y-73350476D01*
X85502857Y-73255238D01*
X85598095Y-73160000D01*
X85740952Y-73112380D01*
X85836190Y-73112380D01*
X85979047Y-73160000D01*
X86026666Y-73207619D01*
X87217142Y-74112380D02*
X87217142Y-73112380D01*
X87693333Y-73445714D02*
X87693333Y-74112380D01*
X87693333Y-73540952D02*
X87740952Y-73493333D01*
X87836190Y-73445714D01*
X87979047Y-73445714D01*
X88074285Y-73493333D01*
X88121904Y-73588571D01*
X88121904Y-74112380D01*
X90872380Y-95543333D02*
X91586666Y-95543333D01*
X91729523Y-95590952D01*
X91824761Y-95686190D01*
X91872380Y-95829047D01*
X91872380Y-95924285D01*
X90967619Y-95114761D02*
X90920000Y-95067142D01*
X90872380Y-94971904D01*
X90872380Y-94733809D01*
X90920000Y-94638571D01*
X90967619Y-94590952D01*
X91062857Y-94543333D01*
X91158095Y-94543333D01*
X91300952Y-94590952D01*
X91872380Y-95162380D01*
X91872380Y-94543333D01*
X83979047Y-101766666D02*
X84455238Y-101766666D01*
X83883809Y-102052380D02*
X84217142Y-101052380D01*
X84550476Y-102052380D01*
X85455238Y-101957142D02*
X85407619Y-102004761D01*
X85264761Y-102052380D01*
X85169523Y-102052380D01*
X85026666Y-102004761D01*
X84931428Y-101909523D01*
X84883809Y-101814285D01*
X84836190Y-101623809D01*
X84836190Y-101480952D01*
X84883809Y-101290476D01*
X84931428Y-101195238D01*
X85026666Y-101100000D01*
X85169523Y-101052380D01*
X85264761Y-101052380D01*
X85407619Y-101100000D01*
X85455238Y-101147619D01*
X86836190Y-101052380D02*
X87026666Y-101052380D01*
X87121904Y-101100000D01*
X87217142Y-101195238D01*
X87264761Y-101385714D01*
X87264761Y-101719047D01*
X87217142Y-101909523D01*
X87121904Y-102004761D01*
X87026666Y-102052380D01*
X86836190Y-102052380D01*
X86740952Y-102004761D01*
X86645714Y-101909523D01*
X86598095Y-101719047D01*
X86598095Y-101385714D01*
X86645714Y-101195238D01*
X86740952Y-101100000D01*
X86836190Y-101052380D01*
X88121904Y-101385714D02*
X88121904Y-102052380D01*
X87693333Y-101385714D02*
X87693333Y-101909523D01*
X87740952Y-102004761D01*
X87836190Y-102052380D01*
X87979047Y-102052380D01*
X88074285Y-102004761D01*
X88121904Y-101957142D01*
X88455238Y-101385714D02*
X88836190Y-101385714D01*
X88598095Y-101052380D02*
X88598095Y-101909523D01*
X88645714Y-102004761D01*
X88740952Y-102052380D01*
X88836190Y-102052380D01*
X148042380Y-105108333D02*
X148756666Y-105108333D01*
X148899523Y-105155952D01*
X148994761Y-105251190D01*
X149042380Y-105394047D01*
X149042380Y-105489285D01*
X148042380Y-104727380D02*
X148042380Y-104108333D01*
X148423333Y-104441666D01*
X148423333Y-104298809D01*
X148470952Y-104203571D01*
X148518571Y-104155952D01*
X148613809Y-104108333D01*
X148851904Y-104108333D01*
X148947142Y-104155952D01*
X148994761Y-104203571D01*
X149042380Y-104298809D01*
X149042380Y-104584523D01*
X148994761Y-104679761D01*
X148947142Y-104727380D01*
X148042380Y-68913333D02*
X148756666Y-68913333D01*
X148899523Y-68960952D01*
X148994761Y-69056190D01*
X149042380Y-69199047D01*
X149042380Y-69294285D01*
X148375714Y-68008571D02*
X149042380Y-68008571D01*
X147994761Y-68246666D02*
X148709047Y-68484761D01*
X148709047Y-67865714D01*
X141906666Y-91932380D02*
X141906666Y-92646666D01*
X141859047Y-92789523D01*
X141763809Y-92884761D01*
X141620952Y-92932380D01*
X141525714Y-92932380D01*
X142859047Y-91932380D02*
X142382857Y-91932380D01*
X142335238Y-92408571D01*
X142382857Y-92360952D01*
X142478095Y-92313333D01*
X142716190Y-92313333D01*
X142811428Y-92360952D01*
X142859047Y-92408571D01*
X142906666Y-92503809D01*
X142906666Y-92741904D01*
X142859047Y-92837142D01*
X142811428Y-92884761D01*
X142716190Y-92932380D01*
X142478095Y-92932380D01*
X142382857Y-92884761D01*
X142335238Y-92837142D01*
X118641904Y-95917380D02*
X118641904Y-94917380D01*
X119022857Y-94917380D01*
X119118095Y-94965000D01*
X119165714Y-95012619D01*
X119213333Y-95107857D01*
X119213333Y-95250714D01*
X119165714Y-95345952D01*
X119118095Y-95393571D01*
X119022857Y-95441190D01*
X118641904Y-95441190D01*
X120165714Y-95917380D02*
X119594285Y-95917380D01*
X119880000Y-95917380D02*
X119880000Y-94917380D01*
X119784761Y-95060238D01*
X119689523Y-95155476D01*
X119594285Y-95203095D01*
X133881904Y-93377380D02*
X133881904Y-92377380D01*
X134262857Y-92377380D01*
X134358095Y-92425000D01*
X134405714Y-92472619D01*
X134453333Y-92567857D01*
X134453333Y-92710714D01*
X134405714Y-92805952D01*
X134358095Y-92853571D01*
X134262857Y-92901190D01*
X133881904Y-92901190D01*
X134834285Y-92472619D02*
X134881904Y-92425000D01*
X134977142Y-92377380D01*
X135215238Y-92377380D01*
X135310476Y-92425000D01*
X135358095Y-92472619D01*
X135405714Y-92567857D01*
X135405714Y-92663095D01*
X135358095Y-92805952D01*
X134786666Y-93377380D01*
X135405714Y-93377380D01*
X128645595Y-87082380D02*
X128645595Y-87891904D01*
X128693214Y-87987142D01*
X128740833Y-88034761D01*
X128836071Y-88082380D01*
X129026547Y-88082380D01*
X129121785Y-88034761D01*
X129169404Y-87987142D01*
X129217023Y-87891904D01*
X129217023Y-87082380D01*
X130217023Y-88082380D02*
X129645595Y-88082380D01*
X129931309Y-88082380D02*
X129931309Y-87082380D01*
X129836071Y-87225238D01*
X129740833Y-87320476D01*
X129645595Y-87368095D01*
X134713095Y-87082380D02*
X134713095Y-87891904D01*
X134760714Y-87987142D01*
X134808333Y-88034761D01*
X134903571Y-88082380D01*
X135094047Y-88082380D01*
X135189285Y-88034761D01*
X135236904Y-87987142D01*
X135284523Y-87891904D01*
X135284523Y-87082380D01*
X135713095Y-87177619D02*
X135760714Y-87130000D01*
X135855952Y-87082380D01*
X136094047Y-87082380D01*
X136189285Y-87130000D01*
X136236904Y-87177619D01*
X136284523Y-87272857D01*
X136284523Y-87368095D01*
X136236904Y-87510952D01*
X135665476Y-88082380D01*
X136284523Y-88082380D01*
X119284761Y-88177619D02*
X119189523Y-88130000D01*
X119094285Y-88034761D01*
X118951428Y-87891904D01*
X118856190Y-87844285D01*
X118760952Y-87844285D01*
X118808571Y-88082380D02*
X118713333Y-88034761D01*
X118618095Y-87939523D01*
X118570476Y-87749047D01*
X118570476Y-87415714D01*
X118618095Y-87225238D01*
X118713333Y-87130000D01*
X118808571Y-87082380D01*
X118999047Y-87082380D01*
X119094285Y-87130000D01*
X119189523Y-87225238D01*
X119237142Y-87415714D01*
X119237142Y-87749047D01*
X119189523Y-87939523D01*
X119094285Y-88034761D01*
X118999047Y-88082380D01*
X118808571Y-88082380D01*
X120189523Y-88082380D02*
X119618095Y-88082380D01*
X119903809Y-88082380D02*
X119903809Y-87082380D01*
X119808571Y-87225238D01*
X119713333Y-87320476D01*
X119618095Y-87368095D01*
X122627380Y-90336666D02*
X122151190Y-90670000D01*
X122627380Y-90908095D02*
X121627380Y-90908095D01*
X121627380Y-90527142D01*
X121675000Y-90431904D01*
X121722619Y-90384285D01*
X121817857Y-90336666D01*
X121960714Y-90336666D01*
X122055952Y-90384285D01*
X122103571Y-90431904D01*
X122151190Y-90527142D01*
X122151190Y-90908095D01*
X122627380Y-89384285D02*
X122627380Y-89955714D01*
X122627380Y-89670000D02*
X121627380Y-89670000D01*
X121770238Y-89765238D01*
X121865476Y-89860476D01*
X121913095Y-89955714D01*
X129128333Y-96082380D02*
X128795000Y-95606190D01*
X128556904Y-96082380D02*
X128556904Y-95082380D01*
X128937857Y-95082380D01*
X129033095Y-95130000D01*
X129080714Y-95177619D01*
X129128333Y-95272857D01*
X129128333Y-95415714D01*
X129080714Y-95510952D01*
X129033095Y-95558571D01*
X128937857Y-95606190D01*
X128556904Y-95606190D01*
X129509285Y-95177619D02*
X129556904Y-95130000D01*
X129652142Y-95082380D01*
X129890238Y-95082380D01*
X129985476Y-95130000D01*
X130033095Y-95177619D01*
X130080714Y-95272857D01*
X130080714Y-95368095D01*
X130033095Y-95510952D01*
X129461666Y-96082380D01*
X130080714Y-96082380D01*
X126467142Y-104306666D02*
X126514761Y-104354285D01*
X126562380Y-104497142D01*
X126562380Y-104592380D01*
X126514761Y-104735238D01*
X126419523Y-104830476D01*
X126324285Y-104878095D01*
X126133809Y-104925714D01*
X125990952Y-104925714D01*
X125800476Y-104878095D01*
X125705238Y-104830476D01*
X125610000Y-104735238D01*
X125562380Y-104592380D01*
X125562380Y-104497142D01*
X125610000Y-104354285D01*
X125657619Y-104306666D01*
X126562380Y-103354285D02*
X126562380Y-103925714D01*
X126562380Y-103640000D02*
X125562380Y-103640000D01*
X125705238Y-103735238D01*
X125800476Y-103830476D01*
X125848095Y-103925714D01*
X101639761Y-86652380D02*
X101306428Y-86176190D01*
X101068333Y-86652380D02*
X101068333Y-85652380D01*
X101449285Y-85652380D01*
X101544523Y-85700000D01*
X101592142Y-85747619D01*
X101639761Y-85842857D01*
X101639761Y-85985714D01*
X101592142Y-86080952D01*
X101544523Y-86128571D01*
X101449285Y-86176190D01*
X101068333Y-86176190D01*
X101925476Y-85652380D02*
X102258809Y-86652380D01*
X102592142Y-85652380D01*
X103449285Y-86652380D02*
X102877857Y-86652380D01*
X103163571Y-86652380D02*
X103163571Y-85652380D01*
X103068333Y-85795238D01*
X102973095Y-85890476D01*
X102877857Y-85938095D01*
X90733571Y-72088333D02*
X90733571Y-72421666D01*
X91257380Y-72421666D02*
X90257380Y-72421666D01*
X90257380Y-71945476D01*
X91257380Y-71040714D02*
X91257380Y-71612142D01*
X91257380Y-71326428D02*
X90257380Y-71326428D01*
X90400238Y-71421666D01*
X90495476Y-71516904D01*
X90543095Y-71612142D01*
X91257380Y-69357857D02*
X91257380Y-69929285D01*
X91257380Y-69643571D02*
X90257380Y-69643571D01*
X90400238Y-69738809D01*
X90495476Y-69834047D01*
X90543095Y-69929285D01*
X90971666Y-68976904D02*
X90971666Y-68500714D01*
X91257380Y-69072142D02*
X90257380Y-68738809D01*
X91257380Y-68405476D01*
X93432380Y-68580000D02*
X93670476Y-68580000D01*
X93575238Y-68818095D02*
X93670476Y-68580000D01*
X93575238Y-68341904D01*
X93860952Y-68722857D02*
X93670476Y-68580000D01*
X93860952Y-68437142D01*
X88828571Y-87963333D02*
X88828571Y-88296666D01*
X89352380Y-88296666D02*
X88352380Y-88296666D01*
X88352380Y-87820476D01*
X88447619Y-87487142D02*
X88400000Y-87439523D01*
X88352380Y-87344285D01*
X88352380Y-87106190D01*
X88400000Y-87010952D01*
X88447619Y-86963333D01*
X88542857Y-86915714D01*
X88638095Y-86915714D01*
X88780952Y-86963333D01*
X89352380Y-87534761D01*
X89352380Y-86915714D01*
X89717619Y-89058571D02*
X89670000Y-89010952D01*
X89622380Y-88915714D01*
X89622380Y-88677619D01*
X89670000Y-88582380D01*
X89717619Y-88534761D01*
X89812857Y-88487142D01*
X89908095Y-88487142D01*
X90050952Y-88534761D01*
X90622380Y-89106190D01*
X90622380Y-88487142D01*
X90527142Y-88058571D02*
X90574761Y-88010952D01*
X90622380Y-88058571D01*
X90574761Y-88106190D01*
X90527142Y-88058571D01*
X90622380Y-88058571D01*
X89622380Y-87106190D02*
X89622380Y-87582380D01*
X90098571Y-87630000D01*
X90050952Y-87582380D01*
X90003333Y-87487142D01*
X90003333Y-87249047D01*
X90050952Y-87153809D01*
X90098571Y-87106190D01*
X90193809Y-87058571D01*
X90431904Y-87058571D01*
X90527142Y-87106190D01*
X90574761Y-87153809D01*
X90622380Y-87249047D01*
X90622380Y-87487142D01*
X90574761Y-87582380D01*
X90527142Y-87630000D01*
X90336666Y-86677619D02*
X90336666Y-86201428D01*
X90622380Y-86772857D02*
X89622380Y-86439523D01*
X90622380Y-86106190D01*
X93432380Y-90170000D02*
X93670476Y-90170000D01*
X93575238Y-90408095D02*
X93670476Y-90170000D01*
X93575238Y-89931904D01*
X93860952Y-90312857D02*
X93670476Y-90170000D01*
X93860952Y-90027142D01*
X123389404Y-96082380D02*
X123389404Y-95082380D01*
X123627500Y-95082380D01*
X123770357Y-95130000D01*
X123865595Y-95225238D01*
X123913214Y-95320476D01*
X123960833Y-95510952D01*
X123960833Y-95653809D01*
X123913214Y-95844285D01*
X123865595Y-95939523D01*
X123770357Y-96034761D01*
X123627500Y-96082380D01*
X123389404Y-96082380D01*
X124913214Y-96082380D02*
X124341785Y-96082380D01*
X124627500Y-96082380D02*
X124627500Y-95082380D01*
X124532261Y-95225238D01*
X124437023Y-95320476D01*
X124341785Y-95368095D01*
X130477142Y-104306666D02*
X130524761Y-104354285D01*
X130572380Y-104497142D01*
X130572380Y-104592380D01*
X130524761Y-104735238D01*
X130429523Y-104830476D01*
X130334285Y-104878095D01*
X130143809Y-104925714D01*
X130000952Y-104925714D01*
X129810476Y-104878095D01*
X129715238Y-104830476D01*
X129620000Y-104735238D01*
X129572380Y-104592380D01*
X129572380Y-104497142D01*
X129620000Y-104354285D01*
X129667619Y-104306666D01*
X129667619Y-103925714D02*
X129620000Y-103878095D01*
X129572380Y-103782857D01*
X129572380Y-103544761D01*
X129620000Y-103449523D01*
X129667619Y-103401904D01*
X129762857Y-103354285D01*
X129858095Y-103354285D01*
X130000952Y-103401904D01*
X130572380Y-103973333D01*
X130572380Y-103354285D01*
D13*
X105497500Y-107600000D02*
X107797500Y-107600000D01*
X102997500Y-100100000D02*
X107997500Y-103100000D01*
X101997500Y-101600000D02*
X101997500Y-97900000D01*
X105497500Y-107600000D02*
X105497500Y-103100000D01*
X112997500Y-100400000D02*
X112997500Y-93900000D01*
X101997500Y-101600000D02*
X100497500Y-101600000D01*
X97297500Y-105900000D02*
X97297500Y-103600000D01*
X100497500Y-101600000D02*
X95997500Y-104300000D01*
X107797500Y-95600000D02*
X105497500Y-95600000D01*
X105497500Y-100100000D02*
X105497500Y-95600000D01*
X97297500Y-97300000D02*
X97297500Y-99600000D01*
X108897500Y-101600000D02*
X109797500Y-101600000D01*
X112997500Y-109300000D02*
X93797500Y-109300000D01*
X93797500Y-109300000D02*
X93797500Y-93900000D01*
X93797500Y-93900000D02*
X112997500Y-93900000D01*
X112997500Y-109300000D02*
X112997500Y-102800000D01*
X107997500Y-100100000D02*
X107997500Y-103100000D01*
X102997500Y-100100000D02*
X107997500Y-100100000D01*
X101997500Y-97900000D02*
X108897500Y-97900000D01*
X108897500Y-101600000D02*
X108897500Y-97900000D01*
X102997500Y-103100000D02*
X102997500Y-100100000D01*
X107997500Y-103100000D02*
X102997500Y-103100000D01*
X145406000Y-74936000D02*
X145406000Y-80636000D01*
X141106000Y-74936000D02*
X141106000Y-80636000D01*
X145406000Y-74936000D02*
X141106000Y-74936000D01*
X132130000Y-64790000D02*
X97930000Y-64790000D01*
X132130000Y-84990000D02*
X132130000Y-64790000D01*
X97930000Y-64790000D02*
X97930000Y-84990000D01*
X97930000Y-84990000D02*
X132130000Y-84990000D01*
X97540000Y-71390000D02*
X97540000Y-73400000D01*
X135160000Y-75260000D02*
X135160000Y-72060000D01*
X140630000Y-65560000D02*
X133690000Y-65560000D01*
X133690000Y-81760000D02*
X140630000Y-81760000D01*
X140630000Y-81760000D02*
X140630000Y-65560000D01*
X133690000Y-65560000D02*
X133690000Y-81760000D01*
X137160000Y-72910000D02*
X137160000Y-74410000D01*
X139160000Y-72060000D02*
X139160000Y-75260000D01*
X87748000Y-79124000D02*
X87641000Y-79017000D01*
X84813000Y-76188000D02*
X84706000Y-76082000D01*
X82860000Y-74910000D02*
X82860000Y-85030000D01*
X85368000Y-81212000D02*
X84972000Y-80817000D01*
X90420000Y-74910000D02*
X81300000Y-74910000D01*
X81700000Y-74670000D02*
X81060000Y-74670000D01*
X85086000Y-81463000D02*
X84706000Y-81083000D01*
X81060000Y-74670000D02*
X81060000Y-75070000D01*
X90420000Y-74910000D02*
X90420000Y-85030000D01*
X88014000Y-83858000D02*
X87634000Y-83478000D01*
X81300000Y-74910000D02*
X81300000Y-85030000D01*
X88014000Y-78858000D02*
X87907000Y-78751000D01*
X90420000Y-85030000D02*
X81300000Y-85030000D01*
X81760000Y-74910000D02*
X81760000Y-85030000D01*
X85079000Y-75922000D02*
X84972000Y-75816000D01*
X87748000Y-84124000D02*
X87352000Y-83729000D01*
X88540000Y-82470000D02*
G75*
G03*
X88540000Y-82470000I-2180000J0D01*
G01*
X88540000Y-77470000D02*
G75*
G03*
X88540000Y-77470000I-2180000J0D01*
G01*
X85086000Y-96703000D02*
X84706000Y-96323000D01*
X88014000Y-99098000D02*
X87634000Y-98718000D01*
X81700000Y-89910000D02*
X81060000Y-89910000D01*
X88014000Y-94098000D02*
X87907000Y-93991000D01*
X82860000Y-90150000D02*
X82860000Y-100270000D01*
X90420000Y-90150000D02*
X81300000Y-90150000D01*
X90420000Y-100270000D02*
X81300000Y-100270000D01*
X87748000Y-94364000D02*
X87641000Y-94257000D01*
X81060000Y-89910000D02*
X81060000Y-90310000D01*
X85368000Y-96452000D02*
X84972000Y-96057000D01*
X85079000Y-91162000D02*
X84972000Y-91056000D01*
X81300000Y-90150000D02*
X81300000Y-100270000D01*
X84813000Y-91428000D02*
X84706000Y-91322000D01*
X81760000Y-90150000D02*
X81760000Y-100270000D01*
X87748000Y-99364000D02*
X87352000Y-98969000D01*
X90420000Y-90150000D02*
X90420000Y-100270000D01*
X88540000Y-97710000D02*
G75*
G03*
X88540000Y-97710000I-2180000J0D01*
G01*
X88540000Y-92710000D02*
G75*
G03*
X88540000Y-92710000I-2180000J0D01*
G01*
X147840000Y-102850000D02*
X147840000Y-92730000D01*
X153447000Y-101572000D02*
X153554000Y-101678000D01*
X150512000Y-93636000D02*
X150908000Y-94031000D01*
X156560000Y-103090000D02*
X157200000Y-103090000D01*
X152892000Y-96548000D02*
X153288000Y-96943000D01*
X147840000Y-102850000D02*
X156960000Y-102850000D01*
X155400000Y-102850000D02*
X155400000Y-92730000D01*
X150246000Y-98902000D02*
X150353000Y-99009000D01*
X156500000Y-102850000D02*
X156500000Y-92730000D01*
X150246000Y-93902000D02*
X150626000Y-94282000D01*
X150512000Y-98636000D02*
X150619000Y-98743000D01*
X153174000Y-96297000D02*
X153554000Y-96677000D01*
X153181000Y-101838000D02*
X153288000Y-101944000D01*
X156960000Y-102850000D02*
X156960000Y-92730000D01*
X157200000Y-103090000D02*
X157200000Y-102690000D01*
X147840000Y-92730000D02*
X156960000Y-92730000D01*
X154080000Y-95290000D02*
G75*
G03*
X154080000Y-95290000I-2180000J0D01*
G01*
X154080000Y-100290000D02*
G75*
G03*
X154080000Y-100290000I-2180000J0D01*
G01*
X157200000Y-90310000D02*
X157200000Y-89910000D01*
X152892000Y-73768000D02*
X153288000Y-74163000D01*
X153447000Y-88792000D02*
X153554000Y-88898000D01*
X147840000Y-90070000D02*
X147840000Y-69949000D01*
X153181000Y-89058000D02*
X153288000Y-89164000D01*
X152892000Y-78768000D02*
X153288000Y-79163000D01*
X153174000Y-78517000D02*
X153554000Y-78897000D01*
X153174000Y-83517000D02*
X153554000Y-83897000D01*
X153174000Y-73517000D02*
X153554000Y-73897000D01*
X150246000Y-86122000D02*
X150353000Y-86229000D01*
X150512000Y-85856000D02*
X150619000Y-85963000D01*
X150512000Y-80856000D02*
X150908000Y-81251000D01*
X150246000Y-76122000D02*
X150626000Y-76502000D01*
X156960000Y-90070000D02*
X156960000Y-69949000D01*
X155400000Y-90070000D02*
X155400000Y-69949000D01*
X156500000Y-90070000D02*
X156500000Y-69949000D01*
X150512000Y-75856000D02*
X150908000Y-76251000D01*
X156560000Y-90310000D02*
X157200000Y-90310000D01*
X152892000Y-83768000D02*
X153288000Y-84163000D01*
X150512000Y-70856000D02*
X150908000Y-71251000D01*
X147840000Y-90070000D02*
X156960000Y-90070000D01*
X147840000Y-69949000D02*
X156960000Y-69949000D01*
X150246000Y-81122000D02*
X150626000Y-81502000D01*
X150246000Y-71122000D02*
X150626000Y-71502000D01*
X154080000Y-72510000D02*
G75*
G03*
X154080000Y-72510000I-2180000J0D01*
G01*
X154080000Y-77510000D02*
G75*
G03*
X154080000Y-77510000I-2180000J0D01*
G01*
X154080000Y-82510000D02*
G75*
G03*
X154080000Y-82510000I-2180000J0D01*
G01*
X154080000Y-87510000D02*
G75*
G03*
X154080000Y-87510000I-2180000J0D01*
G01*
X142240000Y-93920000D02*
X143570000Y-93920000D01*
X143570000Y-93920000D02*
X143570000Y-95250000D01*
X140910000Y-96520000D02*
X140910000Y-109280000D01*
X140910000Y-96520000D02*
X143570000Y-96520000D01*
X140910000Y-109280000D02*
X143570000Y-109280000D01*
X143570000Y-96520000D02*
X143570000Y-109280000D01*
X118050000Y-99065000D02*
X118050000Y-106745000D01*
X120710000Y-99065000D02*
X120710000Y-106745000D01*
X118050000Y-96465000D02*
X119380000Y-96465000D01*
X118050000Y-97795000D02*
X118050000Y-96465000D01*
X118050000Y-106745000D02*
X120710000Y-106745000D01*
X118050000Y-99065000D02*
X120710000Y-99065000D01*
X133290000Y-93925000D02*
X134620000Y-93925000D01*
X135950000Y-96525000D02*
X135950000Y-106745000D01*
X133290000Y-96525000D02*
X135950000Y-96525000D01*
X133290000Y-106745000D02*
X135950000Y-106745000D01*
X133290000Y-96525000D02*
X133290000Y-106745000D01*
X133290000Y-95255000D02*
X133290000Y-93925000D01*
X129407500Y-91730000D02*
X128607500Y-91730000D01*
X129407500Y-88610000D02*
X127607500Y-88610000D01*
X129407500Y-91730000D02*
X130207500Y-91730000D01*
X129407500Y-88610000D02*
X130207500Y-88610000D01*
X135475000Y-88610000D02*
X136275000Y-88610000D01*
X135475000Y-91730000D02*
X136275000Y-91730000D01*
X135475000Y-91730000D02*
X134675000Y-91730000D01*
X135475000Y-88610000D02*
X133675000Y-88610000D01*
X119380000Y-88610000D02*
X118730000Y-88610000D01*
X119380000Y-91730000D02*
X121055000Y-91730000D01*
X119380000Y-91730000D02*
X118730000Y-91730000D01*
X119380000Y-88610000D02*
X120030000Y-88610000D01*
X123090000Y-90397064D02*
X123090000Y-89942936D01*
X124560000Y-90397064D02*
X124560000Y-89942936D01*
X129522064Y-94715000D02*
X129067936Y-94715000D01*
X129522064Y-93245000D02*
X129067936Y-93245000D01*
X123725000Y-103878748D02*
X123725000Y-104401252D01*
X125195000Y-103878748D02*
X125195000Y-104401252D01*
D12*
X97735000Y-90600000D02*
X97735000Y-87200000D01*
X106735000Y-90600000D02*
X106735000Y-87200000D01*
X106735000Y-87200000D02*
X97735000Y-87200000D01*
X106735000Y-90600000D02*
X97735000Y-90600000D01*
D13*
X91808300Y-75476100D02*
X91808300Y-66763900D01*
X96151700Y-75476100D02*
X91808300Y-75476100D01*
X96151700Y-66763900D02*
X91808300Y-66763900D01*
X96151700Y-75476100D02*
X96151700Y-66763900D01*
X94615000Y-66001900D02*
X93345000Y-66001900D01*
X93980000Y-65366900D02*
X93980000Y-66636900D01*
X93345000Y-92748100D02*
X94615000Y-92748100D01*
X93980000Y-93383100D02*
X93980000Y-92113100D01*
X91808300Y-83273900D02*
X96151700Y-83273900D01*
X91808300Y-83273900D02*
X91808300Y-91986100D01*
X96151700Y-83273900D02*
X96151700Y-91986100D01*
X91808300Y-91986100D02*
X96151700Y-91986100D01*
X123127500Y-94940000D02*
X125812500Y-94940000D01*
X125812500Y-94940000D02*
X125812500Y-93020000D01*
X125812500Y-93020000D02*
X123127500Y-93020000D01*
X129180000Y-103428748D02*
X129180000Y-104851252D01*
X127360000Y-103428748D02*
X127360000Y-104851252D01*
M02*
