G04 #@! TF.GenerationSoftware,KiCad,Pcbnew,5.99.0-unknown-9aa9857685~131~ubuntu21.04.1*
G04 #@! TF.CreationDate,2021-08-15T16:35:45-05:00*
G04 #@! TF.ProjectId,LED_Pro,4c45445f-5072-46f2-9e6b-696361645f70,rev?*
G04 #@! TF.SameCoordinates,Original*
G04 #@! TF.FileFunction,Soldermask,Bot*
G04 #@! TF.FilePolarity,Negative*
%FSLAX46Y46*%
G04 Gerber Fmt 4.6, Leading zero omitted, Abs format (unit mm)*
G04 Created by KiCad (PCBNEW 5.99.0-unknown-9aa9857685~131~ubuntu21.04.1) date 2021-08-15 16:35:45*
%MOMM*%
%LPD*%
G01*
G04 APERTURE LIST*
%ADD10C,0.100000*%
%ADD11C,3.800000*%
%ADD12C,3.000000*%
%ADD13R,2.300000X2.000000*%
%ADD14C,2.300000*%
%ADD15C,2.780000*%
%ADD16R,2.600000X2.600000*%
%ADD17C,2.600000*%
%ADD18R,1.700000X1.700000*%
%ADD19O,1.700000X1.700000*%
%ADD20C,1.600000*%
%ADD21R,1.473200X1.473200*%
%ADD22C,1.473200*%
G04 APERTURE END LIST*
D10*
X91440000Y-74930000D02*
X81280000Y-74930000D01*
X81280000Y-74930000D02*
X82550000Y-73025000D01*
X82550000Y-73025000D02*
X86360000Y-67310000D01*
X86360000Y-67310000D02*
X91440000Y-74930000D01*
G36*
X91440000Y-74930000D02*
G01*
X81280000Y-74930000D01*
X86360000Y-67310000D01*
X91440000Y-74930000D01*
G37*
X91440000Y-74930000D02*
X81280000Y-74930000D01*
X86360000Y-67310000D01*
X91440000Y-74930000D01*
D11*
X83820000Y-107950000D03*
D12*
X111497500Y-101600000D03*
X97297500Y-107600000D03*
X97297500Y-95600000D03*
X109497500Y-95600000D03*
X109497500Y-107600000D03*
D13*
X100330000Y-72390000D03*
D14*
X100330000Y-77390000D03*
X129730000Y-67190000D03*
X129730000Y-82590000D03*
D15*
X135460000Y-68700000D03*
X138860000Y-68700000D03*
X135460000Y-78620000D03*
X138860000Y-78620000D03*
D16*
X86360000Y-77470000D03*
D17*
X86360000Y-82470000D03*
D16*
X86360000Y-92710000D03*
D17*
X86360000Y-97710000D03*
D16*
X151900000Y-100290000D03*
D17*
X151900000Y-95290000D03*
D16*
X151900000Y-87510000D03*
D17*
X151900000Y-82510000D03*
X151900000Y-77510000D03*
X151900000Y-72510000D03*
D18*
X142240000Y-95250000D03*
D19*
X142240000Y-97790000D03*
X142240000Y-100330000D03*
X142240000Y-102870000D03*
X142240000Y-105410000D03*
X142240000Y-107950000D03*
D18*
X119380000Y-97795000D03*
D19*
X119380000Y-100335000D03*
X119380000Y-102875000D03*
X119380000Y-105415000D03*
D18*
X134620000Y-95255000D03*
D19*
X134620000Y-97795000D03*
X134620000Y-100335000D03*
X134620000Y-102875000D03*
X134620000Y-105415000D03*
D20*
X104735000Y-89525000D03*
X99735000Y-88275000D03*
D21*
X93980000Y-68580000D03*
D22*
X93980000Y-73660000D03*
D21*
X93980000Y-90170000D03*
D22*
X93980000Y-85090000D03*
D11*
X154940000Y-107950000D03*
X83820000Y-66040000D03*
X154940000Y-66040000D03*
M02*
